<svg id="Layer_1" data-name="Layer 1" xmlns="http://www.w3.org/2000/svg" viewBox="0 0 1147 649"><defs><style>.cls-1{fill:#fff;}.cls-2{fill:none;stroke:#33312a;stroke-width:2px;}</style></defs><path class="cls-1" d="M1121.62,647.07a137.17,137.17,0,0,0,20.19-2l.19,0V548c-63-29.89-163-67.22-286-67-222.52.41-320.66,123.29-531,121-74.74-.81-185.17-17.66-319.85-99.41V649.22C644.78,648.11,1113.73,647.19,1121.62,647.07Z"/><path class="cls-2" d="M6.76,549.87c115.83,43.41,237.63,84.55,363.6,59.22,75.88-15.26,128.83-55.09,192.11-90.52.42-.8,2.9-.71,4-1.46,89.24-52.75,199-73.48,304.8-59.08,60.85,8.18,119.19,25.25,176.39,45.26,7.78,3.42,16.33,6.2,24.24,8.95,2.3.8,3.59.2,5.66,1,6.2,2.47,12.32,5.18,18.79,7.14a302,302,0,0,1,43.7,16.84"/></svg>
